<mxfile host="app.diagrams.net" agent="Mozilla/5.0 (Windows NT 10.0; Win64; x64) AppleWebKit/537.36 (KHTML, like Gecko) Chrome/141.0.0.0 Safari/537.36" version="28.2.7">
  <diagram name="Page-1" id="aaaa8250-4180-3840-79b5-4cada1eebb92">
    <mxGraphModel dx="1603" dy="811" grid="1" gridSize="10" guides="1" tooltips="1" connect="1" arrows="1" fold="1" page="1" pageScale="1" pageWidth="850" pageHeight="1100" background="#ffffff" math="0" shadow="0">
      <root>
        <mxCell id="0" />
        <mxCell id="1" parent="0" />
        <mxCell id="7oBVt7_YCJImOpHJeK_m-1" value="" style="outlineConnect=0;dashed=0;verticalLabelPosition=bottom;verticalAlign=top;align=center;html=1;shape=mxgraph.aws3.lambda_function;fillColor=#5294CF;gradientColor=none;" vertex="1" parent="1">
          <mxGeometry x="350" y="177" width="70" height="63" as="geometry" />
        </mxCell>
        <mxCell id="7oBVt7_YCJImOpHJeK_m-2" value="" style="outlineConnect=0;dashed=0;verticalLabelPosition=bottom;verticalAlign=top;align=center;html=1;shape=mxgraph.aws3.ec2;fillColor=#F58534;gradientColor=none;" vertex="1" parent="1">
          <mxGeometry x="570" y="162" width="76.5" height="93" as="geometry" />
        </mxCell>
        <mxCell id="7oBVt7_YCJImOpHJeK_m-3" value="" style="outlineConnect=0;dashed=0;verticalLabelPosition=bottom;verticalAlign=top;align=center;html=1;shape=mxgraph.aws3.s3;fillColor=#E05243;gradientColor=none;" vertex="1" parent="1">
          <mxGeometry x="110.87" y="162" width="78.25" height="93" as="geometry" />
        </mxCell>
        <mxCell id="7oBVt7_YCJImOpHJeK_m-25" value="" style="edgeStyle=orthogonalEdgeStyle;rounded=0;orthogonalLoop=1;jettySize=auto;html=1;" edge="1" parent="1" source="7oBVt7_YCJImOpHJeK_m-6" target="7oBVt7_YCJImOpHJeK_m-3">
          <mxGeometry relative="1" as="geometry" />
        </mxCell>
        <mxCell id="7oBVt7_YCJImOpHJeK_m-6" value="Upload de Arquivo&amp;nbsp;&lt;br&gt;(Input)" style="rounded=0;whiteSpace=wrap;html=1;" vertex="1" parent="1">
          <mxGeometry x="90" y="30" width="120" height="60" as="geometry" />
        </mxCell>
        <mxCell id="7oBVt7_YCJImOpHJeK_m-7" value="Resultado&amp;nbsp; Processado&lt;div&gt;(Output)&lt;/div&gt;" style="rounded=0;whiteSpace=wrap;html=1;" vertex="1" parent="1">
          <mxGeometry x="90" y="540" width="120" height="60" as="geometry" />
        </mxCell>
        <mxCell id="7oBVt7_YCJImOpHJeK_m-8" value="" style="verticalLabelPosition=bottom;html=1;verticalAlign=top;strokeWidth=1;align=center;outlineConnect=0;dashed=0;outlineConnect=0;shape=mxgraph.aws3d.s3Bucket;fillColor=#4286c5;strokeColor=#57A2D8;aspect=fixed;strokeColor2=#292929;" vertex="1" parent="1">
          <mxGeometry x="354.25" y="370" width="61.5" height="63.800000000000004" as="geometry" />
        </mxCell>
        <mxCell id="7oBVt7_YCJImOpHJeK_m-9" value="" style="verticalLabelPosition=bottom;html=1;verticalAlign=top;strokeWidth=1;align=center;outlineConnect=0;dashed=0;outlineConnect=0;shape=mxgraph.aws3d.s3Bucket;fillColor=#4286c5;strokeColor=#57A2D8;aspect=fixed;strokeColor2=#292929;" vertex="1" parent="1">
          <mxGeometry x="119.25" y="370" width="61.5" height="63.800000000000004" as="geometry" />
        </mxCell>
        <mxCell id="7oBVt7_YCJImOpHJeK_m-10" value="Amazon S3 (Bucket de Origem)" style="text;html=1;whiteSpace=wrap;strokeColor=none;fillColor=none;align=center;verticalAlign=middle;rounded=0;" vertex="1" parent="1">
          <mxGeometry x="50" y="280" width="200" height="30" as="geometry" />
        </mxCell>
        <mxCell id="7oBVt7_YCJImOpHJeK_m-11" value="Amazon S3 (Bucket de Destino)" style="text;html=1;whiteSpace=wrap;strokeColor=none;fillColor=none;align=center;verticalAlign=middle;rounded=0;" vertex="1" parent="1">
          <mxGeometry x="50" y="460" width="200" height="30" as="geometry" />
        </mxCell>
        <mxCell id="7oBVt7_YCJImOpHJeK_m-12" value="Amazon S3 (Bucket do Resultado)" style="text;html=1;whiteSpace=wrap;strokeColor=none;fillColor=none;align=center;verticalAlign=middle;rounded=0;" vertex="1" parent="1">
          <mxGeometry x="290" y="460" width="220" height="30" as="geometry" />
        </mxCell>
        <mxCell id="7oBVt7_YCJImOpHJeK_m-13" value="&lt;div&gt;Ação: Executa a Instância EC2&lt;/div&gt;&lt;div&gt;&lt;br&gt;&lt;/div&gt;" style="text;html=1;whiteSpace=wrap;strokeColor=none;fillColor=none;align=center;verticalAlign=middle;rounded=0;" vertex="1" parent="1">
          <mxGeometry x="200" y="386.9" width="130" height="30" as="geometry" />
        </mxCell>
        <mxCell id="7oBVt7_YCJImOpHJeK_m-15" value="&lt;div&gt;AWS Lambda Function&amp;nbsp;&lt;/div&gt;&lt;div&gt;&lt;br&gt;&lt;/div&gt;" style="text;html=1;whiteSpace=wrap;strokeColor=none;fillColor=none;align=center;verticalAlign=middle;rounded=0;" vertex="1" parent="1">
          <mxGeometry x="320" y="270" width="140" height="30" as="geometry" />
        </mxCell>
        <mxCell id="7oBVt7_YCJImOpHJeK_m-16" value="&lt;div&gt;Amazon EC2 (Instância de Processamento)&lt;/div&gt;&lt;div&gt;&lt;br&gt;&lt;/div&gt;" style="text;html=1;whiteSpace=wrap;strokeColor=none;fillColor=none;align=center;verticalAlign=middle;rounded=0;" vertex="1" parent="1">
          <mxGeometry x="530" y="270" width="190" height="30" as="geometry" />
        </mxCell>
        <mxCell id="7oBVt7_YCJImOpHJeK_m-19" style="edgeStyle=orthogonalEdgeStyle;rounded=0;orthogonalLoop=1;jettySize=auto;html=1;exitX=0.5;exitY=1;exitDx=0;exitDy=0;" edge="1" parent="1" source="7oBVt7_YCJImOpHJeK_m-12" target="7oBVt7_YCJImOpHJeK_m-12">
          <mxGeometry relative="1" as="geometry" />
        </mxCell>
        <mxCell id="7oBVt7_YCJImOpHJeK_m-28" value="" style="endArrow=classic;html=1;rounded=0;entryX=0;entryY=0.5;entryDx=0;entryDy=0;entryPerimeter=0;exitX=1;exitY=0.5;exitDx=0;exitDy=0;exitPerimeter=0;" edge="1" parent="1" source="7oBVt7_YCJImOpHJeK_m-1" target="7oBVt7_YCJImOpHJeK_m-2">
          <mxGeometry width="50" height="50" relative="1" as="geometry">
            <mxPoint x="430" y="320" as="sourcePoint" />
            <mxPoint x="480" y="270" as="targetPoint" />
          </mxGeometry>
        </mxCell>
        <mxCell id="7oBVt7_YCJImOpHJeK_m-29" value="" style="endArrow=classic;html=1;rounded=0;exitX=1;exitY=0.5;exitDx=0;exitDy=0;exitPerimeter=0;entryX=0;entryY=0.5;entryDx=0;entryDy=0;entryPerimeter=0;" edge="1" parent="1" source="7oBVt7_YCJImOpHJeK_m-3" target="7oBVt7_YCJImOpHJeK_m-1">
          <mxGeometry width="50" height="50" relative="1" as="geometry">
            <mxPoint x="430" y="320" as="sourcePoint" />
            <mxPoint x="340" y="230" as="targetPoint" />
          </mxGeometry>
        </mxCell>
        <mxCell id="7oBVt7_YCJImOpHJeK_m-32" value="" style="endArrow=classic;html=1;rounded=0;exitX=0.5;exitY=1;exitDx=0;exitDy=0;exitPerimeter=0;" edge="1" parent="1" source="7oBVt7_YCJImOpHJeK_m-3" target="7oBVt7_YCJImOpHJeK_m-9">
          <mxGeometry width="50" height="50" relative="1" as="geometry">
            <mxPoint x="430" y="320" as="sourcePoint" />
            <mxPoint x="480" y="270" as="targetPoint" />
          </mxGeometry>
        </mxCell>
        <mxCell id="7oBVt7_YCJImOpHJeK_m-33" value="" style="endArrow=classic;html=1;rounded=0;exitX=0.5;exitY=1;exitDx=0;exitDy=0;exitPerimeter=0;" edge="1" parent="1" source="7oBVt7_YCJImOpHJeK_m-1" target="7oBVt7_YCJImOpHJeK_m-8">
          <mxGeometry width="50" height="50" relative="1" as="geometry">
            <mxPoint x="430" y="320" as="sourcePoint" />
            <mxPoint x="480" y="270" as="targetPoint" />
          </mxGeometry>
        </mxCell>
        <mxCell id="7oBVt7_YCJImOpHJeK_m-34" value="" style="endArrow=classic;html=1;rounded=0;entryX=0.5;entryY=0;entryDx=0;entryDy=0;" edge="1" parent="1" source="7oBVt7_YCJImOpHJeK_m-9" target="7oBVt7_YCJImOpHJeK_m-7">
          <mxGeometry width="50" height="50" relative="1" as="geometry">
            <mxPoint x="150" y="450" as="sourcePoint" />
            <mxPoint x="480" y="270" as="targetPoint" />
          </mxGeometry>
        </mxCell>
      </root>
    </mxGraphModel>
  </diagram>
</mxfile>
